<svg width="1103" height="170" viewBox="0 0 1103 170" fill="none" xmlns="http://www.w3.org/2000/svg">
<g clip-path="url(#clip0_1741_3722)">
<path d="M896.191 156.399L889.919 145.532L882.619 132.899C880.055 128.451 873.643 128.451 871.075 132.899L863.78 145.532L857.508 156.399C854.487 161.631 858.263 168.171 864.304 168.171H889.395C895.436 168.171 899.212 161.631 896.191 156.399Z" fill="#87E2D5"/>
<path d="M857.507 43.7281L863.779 54.5951L871.079 67.2281C873.641 71.6761 880.055 71.6761 882.623 67.2281L889.917 54.5951L896.189 43.7281C899.211 38.4971 895.435 31.9561 889.393 31.9561H864.303C858.261 31.9561 854.485 38.4971 857.507 43.7281Z" fill="#87E2D5"/>
<path d="M820.513 119.407L831.38 113.135L844.013 105.833C848.461 103.269 848.461 96.8589 844.013 94.2889L831.379 86.9949L820.513 80.7209C815.281 77.7009 808.741 81.4769 808.741 87.5189V112.609C808.741 118.651 815.281 122.427 820.513 119.407Z" fill="#87E2D5"/>
<path d="M933.183 80.721L922.317 86.993L909.684 94.295C905.236 96.856 905.236 103.268 909.684 105.837L922.317 113.133L933.183 119.405C938.416 122.425 944.956 118.649 944.956 112.608V87.517C944.956 81.476 938.415 77.7 933.183 80.721Z" fill="#87E2D5"/>
<path d="M850.691 153.576L853.94 141.457L857.709 127.361C859.043 122.404 854.509 117.869 849.548 119.2L835.456 122.973L823.337 126.221C817.503 127.785 815.548 135.08 819.82 139.352L837.561 157.093C841.833 161.365 849.127 159.411 850.691 153.576Z" fill="#87E2D5"/>
<path d="M903.007 46.5521L899.757 58.6711L895.987 72.7651C894.655 77.7231 899.187 82.2571 904.149 80.9281L918.241 77.1531L930.36 73.9051C936.195 72.3411 938.149 65.0471 933.877 60.7751L916.136 43.0331C911.864 38.7611 904.569 40.7161 903.007 46.5521Z" fill="#87E2D5"/>
<path d="M823.337 73.9071L835.456 77.1551L849.552 80.9241C854.509 82.2571 859.043 77.7241 857.713 72.7631L853.939 58.6711L850.689 46.5521C849.125 40.7161 841.832 38.7611 837.56 43.0331L819.819 60.7761C815.547 65.0481 817.501 72.3431 823.337 73.9071Z" fill="#87E2D5"/>
<path d="M930.36 126.221L918.241 122.973L904.147 119.201C899.188 117.869 894.655 122.403 895.984 127.364L899.759 141.456L903.008 153.575C904.571 159.411 911.865 161.364 916.137 157.093L933.879 139.351C938.151 135.079 936.196 127.784 930.36 126.221Z" fill="#87E2D5"/>
<path d="M1019.05 34.0081L1019.92 49.5801C1029.89 37.5371 1042.97 31.5161 1059.16 31.5161C1087.24 31.5161 1101.52 47.5851 1102.02 79.7251V168.796H1071.75V81.4711C1071.75 72.9171 1069.9 66.5831 1066.2 62.4721C1062.51 58.3611 1056.46 56.3071 1048.08 56.3071C1035.87 56.3071 1026.78 61.8311 1020.8 72.8751V168.796H990.524V34.0081H1019.05Z" fill="#2BB3A0"/>
<path d="M60.917 54.561C52.611 54.561 45.905 57.471 40.798 63.283C35.691 69.096 32.43 77.193 31.019 87.575H88.696V85.332C88.031 75.2 85.333 67.539 80.599 62.348C75.866 57.159 69.304 54.561 60.917 54.561ZM64.53 170.041C45.345 170.041 29.793 164 17.876 151.916C5.95798 139.833 0.000976562 123.743 0.000976562 103.644V99.907C0.000976562 86.452 2.59498 74.432 7.78698 63.843C12.975 53.255 20.264 45.013 29.648 39.116C39.033 33.219 49.497 30.271 61.041 30.271C79.394 30.271 93.575 36.125 103.583 47.835C113.59 59.545 118.595 76.113 118.595 97.54V109.748H30.52C31.433 120.879 35.149 129.68 41.67 136.157C48.189 142.636 56.389 145.875 66.273 145.875C80.142 145.875 91.436 140.268 100.158 129.056L116.477 144.628C111.077 152.685 103.873 158.935 94.863 163.377C85.851 167.819 75.741 170.041 64.53 170.041Z" fill="#2BB3A0"/>
<path d="M369.913 34.0081L370.785 49.5801C380.752 37.5371 393.831 31.5161 410.027 31.5161C438.096 31.5161 452.381 47.5851 452.879 79.7251V168.796H422.608V81.4711C422.608 72.9171 420.76 66.5831 417.065 62.4721C413.368 58.3611 407.327 56.3071 398.939 56.3071C386.731 56.3071 377.637 61.8311 371.657 72.8751V168.796H341.387V34.0081H369.913Z" fill="#2BB3A0"/>
<path d="M566.705 145.751C572.684 145.751 578.309 144.299 583.584 141.389C588.857 138.484 592.823 134.581 595.481 129.68V104.267H579.163C567.951 104.267 559.52 106.219 553.875 110.121C548.225 114.025 545.403 119.548 545.403 126.689C545.403 132.504 547.335 137.135 551.196 140.58C555.057 144.028 560.228 145.751 566.705 145.751ZM599.965 167.551C598.637 164.977 597.475 160.783 596.477 154.968C586.844 165.019 575.052 170.041 561.1 170.041C547.563 170.041 536.515 166.18 527.963 158.456C519.408 150.732 515.132 141.184 515.132 129.804C515.132 115.437 520.467 104.413 531.139 96.729C541.811 89.049 557.069 85.207 576.92 85.207H595.481V76.363C595.481 69.385 593.529 63.801 589.627 59.607C585.723 55.413 579.787 53.316 571.812 53.316C564.919 53.316 559.272 55.041 554.871 58.487C550.468 61.933 548.268 66.315 548.268 71.628H517.997C517.997 64.239 520.445 57.323 525.347 50.888C530.247 44.452 536.911 39.407 545.341 35.752C553.769 32.099 563.175 30.271 573.557 30.271C589.335 30.271 601.917 34.237 611.301 42.167C620.685 50.099 625.504 61.248 625.753 75.616V136.407C625.753 148.533 627.455 158.207 630.86 165.432V167.551H599.965Z" fill="#2BB3A0"/>
<path d="M731.108 -0.000976562V32.761H754.901V55.185H731.108V130.427C731.108 135.577 732.124 139.293 734.16 141.576C736.193 143.863 739.828 145.003 745.06 145.003C748.548 145.003 752.076 144.587 755.649 143.756V167.176C748.755 169.085 742.112 170.041 735.717 170.041C712.461 170.041 700.836 157.211 700.836 131.548V55.185H678.663V32.761H700.836V-0.000976562H731.108Z" fill="#2BB3A0"/>
<path d="M244.255 99.16L285.488 32.761H266.885C257.583 32.761 248.985 37.72 244.325 45.772L226.191 77.109L208.519 45.964C203.888 37.804 195.231 32.761 185.848 32.761H167.641L245.928 154.627C250.6 162.629 259.171 167.551 268.437 167.551H286.859L244.255 99.16Z" fill="#2BB3A0"/>
<path d="M205.276 101.3L163.045 167.6L181.679 167.787C190.964 167.88 199.597 163.025 204.344 155.044L221.216 126.669L205.276 101.3Z" fill="#2BB3A0"/>
</g>
<defs>
<clipPath id="clip0_1741_3722">
<rect width="1103" height="170" fill="white"/>
</clipPath>
</defs>
</svg>
